<svg width="110" height="110" viewBox="0 0 110 110" fill="none" xmlns="http://www.w3.org/2000/svg">
<circle cx="55" cy="55" r="55" fill="black"/>
<path d="M61.7999 6.9998L60.2 15.5998L68.1999 17.0998L67.6999 19.8998L56.2 17.7998L58.2999 6.2998L61.7999 6.9998Z" fill="white"/>
<path d="M71.2 21.9998L67.9 20.4998L72.6 9.7998L75.9 11.2998L71.2 21.9998Z" fill="white"/>
<path d="M80.2 12.6998L84.1 16.1998L82.3 24.2998L90.1 21.5998L93.8 24.8998L86 33.4998L83.3 31.0998L88.7 25.0998L79.9 28.0998L78.4 26.7998L80.4 17.6998L75 23.6998L72.4 21.3998L80.2 12.6998Z" fill="white"/>
<path d="M87.3999 37.9998L85.5999 34.7998L95.5999 28.9998L97.3999 32.1998L87.3999 37.9998Z" fill="white"/>
<path d="M98 40.3998L96.6 35.5998L99.3 34.7998L103 47.9998L100.3 48.7998L99 43.9998L90.4 46.3998L89.4 42.8998L98 40.3998Z" fill="white"/>
<path d="M102.4 64.5998L99.8 64.3998L100.5 55.7998L98.8 55.6998L98 63.9998L95.3 63.7998L96 55.3998L94.1 55.2998L93.4 63.9998L90.7 63.7998L91.7 51.3998L103.3 52.2998L102.4 64.5998Z" fill="white"/>
<path d="M101.3 69.3998L97.7999 76.2998C97.2999 77.2998 96.7999 78.0998 96.2999 78.7998C95.7999 79.4998 95.2999 79.9998 94.7999 80.4998C94.2999 80.9998 93.7999 81.1998 93.2999 81.3998C92.7999 81.5998 92.2999 81.6998 91.7999 81.6998C91.2999 81.6998 90.8999 81.6998 90.3999 81.5998C89.9999 81.4998 89.5999 81.2998 89.1999 81.0998L88.7999 80.9998C88.3999 80.7998 88.0999 80.5998 87.6999 80.2998C87.2999 79.9998 86.9999 79.6998 86.7999 79.2998C86.4999 78.8998 86.2999 78.3998 86.1999 77.8998C85.9999 77.3998 85.9999 76.7998 85.9999 76.0998C85.9999 75.3998 86.1999 74.6998 86.3999 73.8998C86.5999 73.0998 86.9999 72.1998 87.4999 71.0998L90.9999 64.1998L101.3 69.3998ZM91.7999 68.6998L89.9999 72.0998C89.4999 72.9998 89.2999 73.7998 89.1999 74.3998C89.0999 74.9998 89.0999 75.5998 89.1999 75.9998C89.2999 76.3998 89.4999 76.7998 89.7999 76.9998C90.0999 77.1998 90.2999 77.3998 90.5999 77.5998H90.6999C90.9999 77.6998 91.2999 77.7998 91.5999 77.8998C91.9999 77.9998 92.2999 77.8998 92.7999 77.7998C93.2999 77.6998 93.6999 77.2998 94.0999 76.8998C94.5999 76.3998 94.9999 75.6998 95.4999 74.7998L97.1999 71.3998L91.7999 68.6998Z" fill="white"/>
<path d="M76.9 97.7998L75.4 95.5998L82.6 90.6998L81.6 89.2998L74.6 94.0998L73.1 91.8998L80.1 87.0998L79 85.4998L71.7 90.4998L70.2 88.2998L80.5 81.2998L87.1 90.8998L76.9 97.7998Z" fill="white"/>
<path d="M72.4 99.9998L64.8 101.6C63.7 101.8 62.7 102 61.9 102C61 102 60.3 102 59.6 101.8C58.9 101.7 58.4 101.5 57.9 101.2C57.4 100.9 57.1 100.6 56.7 100.3C56.3 99.9998 56.1 99.5998 56 99.1998C55.8 98.7998 55.7 98.3998 55.6 97.8998L55.5 97.3998C55.4 96.9998 55.4 96.5998 55.4 96.0998C55.4 95.5998 55.5 95.1998 55.6 94.6998C55.7 94.1998 56 93.7998 56.3 93.2998C56.6 92.7998 57 92.3998 57.6 91.9998C58.1 91.5998 58.8 91.1998 59.6 90.8998C60.4 90.5998 61.3 90.2998 62.5 90.0998L70.1 88.4998L72.4 99.9998ZM67 92.0998L63.3 92.8998C62.3 93.0998 61.5 93.3998 60.9 93.6998C60.3 93.9998 59.9 94.3998 59.7 94.6998C59.4 95.0998 59.3 95.3998 59.3 95.7998C59.3 96.1998 59.3 96.4998 59.4 96.7998V96.8998C59.5 97.1998 59.6 97.4998 59.7 97.7998C59.9 98.0998 60.1 98.3998 60.5 98.5998C60.9 98.7998 61.4 98.9998 62 98.9998C62.6 98.9998 63.5 98.9998 64.5 98.7998L68.2 97.9998L67 92.0998Z" fill="white"/>
<path d="M50.5 90.7998L54.0999 91.0998L53.2999 102.7L49.7 102.4L50.5 90.7998Z" fill="white"/>
<path d="M42.5 98.1998L47.3 99.7998L46.4 102.4L33.4 98.0998L34.3 95.4998L39 96.9998L41.8 88.5998L45.3 89.7998L42.5 98.1998Z" fill="white"/>
<path d="M33.9 84.2998L37 86.2998L30.7 96.0998L27.6 94.0998L33.9 84.2998Z" fill="white"/>
<path d="M18.2999 85.8998C17.4999 84.9998 16.9 84.0998 16.5 83.2998C16.1 82.4998 15.8 81.7998 15.6 81.0998C15.4 80.3998 15.4 79.7998 15.5 79.2998C15.6 78.7998 15.7 78.2998 15.9 77.7998C16.1 77.2998 16.3 76.9998 16.6 76.6998C16.9 76.3998 17.1 76.0998 17.4 75.8998L17.7999 75.5998C18.0999 75.3998 18.4 75.0998 18.7 74.8998C19.1 74.6998 19.4999 74.4998 19.9 74.3998C20.4 74.2998 20.9 74.1998 21.4 74.1998C21.9999 74.1998 22.5 74.2998 23.2 74.5998C23.8 74.7998 24.5 75.1998 25.2 75.7998C25.9 76.2998 26.7 77.0998 27.5 77.9998L27.9 78.4998C28.7 79.3998 29.2999 80.2998 29.7999 81.0998C30.1999 81.8998 30.5 82.5998 30.7 83.2998C30.9 83.9998 30.9 84.5998 30.7999 85.0998C30.6999 85.5998 30.5999 86.0998 30.4 86.5998C30.2 86.9998 30 87.3998 29.7 87.6998C29.4 87.9998 29.2 88.2998 28.9 88.4998L28.5 88.7998C28.2 88.9998 27.9 89.2998 27.6 89.4998C27.2 89.6998 26.7999 89.8998 26.4 89.9998C26 90.0998 25.5 90.1998 24.9 90.1998C24.4 90.1998 23.8 89.9998 23.1 89.7998C22.5 89.4998 21.8 89.0998 21.1 88.5998C20.4 88.0998 19.5999 87.2998 18.7999 86.3998L18.2999 85.8998ZM19.7999 78.7998C19.4999 78.9998 19.3 79.2998 19.1 79.5998C18.9 79.8998 18.7999 80.2998 18.7999 80.7998C18.7999 81.2998 18.9 81.7998 19.2 82.3998C19.5 82.9998 19.9 83.6998 20.5 84.3998C21.2 85.1998 21.7999 85.6998 22.2999 85.9998C22.7999 86.2998 23.2999 86.4998 23.7999 86.5998C24.1999 86.6998 24.6 86.5998 25 86.4998C25.4 86.3998 25.5999 86.1998 25.9 85.8998L26 85.7998C26.3 85.5998 26.5 85.2998 26.7 84.9998C26.9 84.6998 27 84.2998 27 83.7998C27 83.2998 26.9 82.7998 26.6 82.1998C26.4 81.5998 25.9 80.8998 25.2999 80.1998C24.6999 79.4998 24.1 78.8998 23.5 78.5998C23 78.2998 22.4 78.0998 22 77.9998C21.5 77.8998 21.0999 77.9998 20.7999 78.0998C20.3999 78.1998 20.0999 78.3998 19.9 78.6998L19.7999 78.7998Z" fill="white"/>
<path d="M9.69995 71.0998L14.7 61.8998L7.69995 63.8998L6.69995 60.3998L17.9 57.1998L18.9 60.6998L13.6 70.3998L21 68.2998L22 71.7998L10.8 74.9998L9.69995 71.0998Z" fill="white"/>
<path d="M17.9 52.8998L16.6 52.5998C16.3 52.4998 16 52.3998 15.7 52.2998C15.4 52.1998 15.1 51.9998 14.8 51.7998C14.5 51.5998 14.2 51.2998 13.9 50.9998C13.6 50.6998 13.4 50.2998 13.2 49.7998C13 49.2998 12.9 48.6998 12.7 48.0998C12.5 47.4998 12.6 46.5998 12.6 45.6998L12.7 42.8998C12.7 42.4998 12.7 42.1998 12.7 41.8998C12.7 41.6998 12.6 41.4998 12.6 41.2998C12.6 41.1998 12.5 41.0998 12.4 40.9998C12.3 40.8998 12.2 40.8998 12.2 40.8998C12.1 40.8998 12 40.8998 11.9 40.8998C11.8 40.8998 11.7 40.9998 11.5 41.1998C11.4 41.3998 11.2 41.6998 11.1 41.9998C11 42.3998 10.8 42.8998 10.7 43.4998C10.5 44.1998 10.4 44.7998 10.5 45.1998C10.6 45.5998 10.6 45.9998 10.7 46.1998C10.8 46.4998 11 46.5998 11.1 46.6998C11.3 46.7998 11.4 46.8998 11.6 46.8998L10.7 50.5998H10.6C10.4 50.4998 10.1 50.4998 9.89997 50.2998C9.59997 50.1998 9.39997 49.9998 9.09997 49.7998C8.79997 49.5998 8.59997 49.2998 8.39997 48.8998C8.19997 48.4998 7.99997 48.0998 7.89997 47.5998C7.79997 47.0998 7.69997 46.3998 7.79997 45.6998C7.79997 44.9998 7.99997 44.0998 8.19997 43.0998L8.29997 42.4998C8.59997 41.1998 8.99997 40.0998 9.39997 39.2998C9.79997 38.4998 10.2 37.8998 10.7 37.4998C11.1 37.0998 11.6 36.8998 12.1 36.7998C12.6 36.6998 13 36.7998 13.5 36.8998C13.9 36.9998 14.3 37.1998 14.6 37.2998C14.9 37.4998 15.2 37.7998 15.4 38.1998C15.6 38.5998 15.7 39.0998 15.8 39.6998C15.9 40.2998 15.9 41.0998 15.8 42.0998L15.6 45.2998C15.6 45.9998 15.6 46.5998 15.6 46.9998C15.6 47.3998 15.7 47.7998 15.8 47.9998C15.9 48.1998 16 48.3998 16.1 48.4998C16.2 48.5998 16.3 48.5998 16.4 48.6998L18.1 41.4998L16.6 41.0998L17.4 37.5998L21.5 38.5998L17.9 52.8998Z" fill="white"/>
<path d="M26.2999 22.7998C26.5999 22.9998 26.7999 23.2998 27.0999 23.5998C27.3999 23.8998 27.6999 24.2998 27.8999 24.6998C28.0999 25.0998 28.2999 25.5998 28.3999 26.0998C28.4999 26.5998 28.4999 27.1998 28.3999 27.8998C28.2999 28.5998 28.0999 29.2998 27.6999 30.0998C27.2999 30.8998 26.7999 31.6998 26.0999 32.6998L25.6999 33.2998C24.9999 34.1998 24.2999 34.9998 23.6999 35.4998C22.9999 36.0998 22.3999 36.4998 21.7999 36.6998C21.1999 36.9998 20.5999 37.0998 20.0999 37.1998C19.5999 37.2998 19.0999 37.1998 18.5999 37.0998C18.0999 36.9998 17.6999 36.7998 17.2999 36.6998C16.8999 36.4998 16.5999 36.2998 16.2999 36.0998L15.8999 35.7998C15.5999 35.5998 15.2999 35.2998 14.9999 34.9998C14.6999 34.6998 14.3999 34.2998 14.1999 33.8998C13.9999 33.4998 13.7999 32.9998 13.6999 32.4998C13.5999 31.9998 13.5999 31.3998 13.6999 30.6998C13.7999 29.9998 13.9999 29.2998 14.3999 28.5998C14.7999 27.7998 15.2999 26.9998 15.9999 26.0998L16.3999 25.4998C17.0999 24.5998 17.7999 23.7998 18.3999 23.2998C19.0999 22.6998 19.6999 22.2998 20.2999 22.0998C20.8999 21.7998 21.4999 21.6998 21.9999 21.5998C22.4999 21.5998 22.9999 21.5998 23.4999 21.6998C23.9999 21.7998 24.3999 21.8998 24.7999 22.0998C25.1999 22.2998 25.4999 22.4998 25.7999 22.6998L26.2999 22.7998ZM23.6999 25.5998C23.3999 25.3998 23.0999 25.1998 22.7999 25.0998C22.3999 24.9998 21.9999 24.9998 21.5999 24.9998C21.1999 25.0998 20.6999 25.2998 20.1999 25.5998C19.6999 25.8998 19.1999 26.4998 18.6999 27.1998C18.1999 27.8998 17.7999 28.5998 17.5999 29.0998C17.3999 29.6998 17.2999 30.1998 17.3999 30.5998C17.3999 30.9998 17.5999 31.3998 17.7999 31.6998C17.9999 31.9998 18.2999 32.2998 18.4999 32.4998L18.6999 32.5998C18.9999 32.7998 19.2999 32.9998 19.6999 33.0998C20.0999 33.1998 20.4999 33.1998 20.8999 33.1998C21.2999 33.0998 21.7999 32.8998 22.2999 32.5998C22.7999 32.2998 23.2999 31.6998 23.8999 30.9998C24.3999 30.2998 24.7999 29.5998 24.9999 29.0998C25.1999 28.4998 25.1999 27.9998 25.1999 27.5998C25.0999 27.1998 24.9999 26.7998 24.7999 26.4998C24.5999 26.1998 24.2999 25.8998 24.0999 25.6998L23.6999 25.5998Z" fill="white"/>
<path d="M30.4 26.7998L29.7 25.6998C29.6 25.4998 29.3999 25.1998 29.2999 24.8998C29.1999 24.5998 29.1 24.2998 29 23.8998C28.9 23.4998 28.9 23.1998 29 22.6998C29 22.2998 29.1999 21.7998 29.4 21.3998C29.6 20.8998 29.8999 20.3998 30.2999 19.8998C30.6999 19.3998 31.3 18.7998 31.9 18.1998L34 16.2998C34.3 15.9998 34.5 15.7998 34.7 15.5998C34.9 15.3998 35 15.2998 35 15.0998C35.1 14.9998 35.0999 14.8998 35.0999 14.7998C35.0999 14.6998 35.1 14.5998 35 14.4998C34.9 14.3998 34.9 14.2998 34.7999 14.2998C34.6999 14.1998 34.4999 14.1998 34.2999 14.2998C34.0999 14.2998 33.8 14.3998 33.4 14.5998C33 14.7998 32.6 14.9998 32 15.2998C31.4 15.6998 30.9 15.9998 30.6 16.2998C30.3 16.5998 30.1 16.8998 30 17.1998C29.9 17.4998 29.9 17.6998 29.9 17.8998C29.9 18.0998 30 18.2998 30.1 18.3998L26.7999 20.2998L26.7 20.1998C26.6 19.9998 26.5 19.7998 26.4 19.4998C26.3 19.1998 26.2 18.8998 26.2 18.5998C26.2 18.2998 26.1999 17.8998 26.2999 17.4998C26.3999 17.0998 26.6 16.6998 26.9 16.1998C27.2 15.6998 27.6 15.2998 28.2 14.7998C28.7 14.2998 29.3999 13.7998 30.2999 13.2998L30.7999 12.9998C31.9999 12.2998 32.9999 11.7998 33.7999 11.5998C34.5999 11.2998 35.4 11.1998 35.9 11.2998C36.4 11.3998 36.9999 11.4998 37.2999 11.7998C37.6999 12.0998 38 12.3998 38.2 12.7998C38.4 13.1998 38.6 13.5998 38.7 13.8998C38.8 14.2998 38.7999 14.6998 38.5999 15.0998C38.4999 15.4998 38.1999 15.9998 37.7999 16.3998C37.4 16.8998 36.7999 17.3998 36.0999 18.0998L33.7999 19.9998C33.2999 20.4998 32.8999 20.7998 32.5999 21.1998C32.2999 21.4998 32.1 21.7998 32 21.9998C31.9 22.1998 31.7999 22.3998 31.7999 22.4998C31.7999 22.5998 31.8 22.6998 31.9 22.7998L38.2999 19.0998L37.5 17.7998L40.5999 15.9998L42.7999 19.6998L30.4 26.7998Z" fill="white"/>
<path d="M41 13.0998L40.4 10.9998C40.9 10.7998 41.3 10.6998 41.6 10.4998C41.9 10.2998 42.2 10.0998 42.4 9.7998C42.7 9.4998 42.9 9.1998 43 8.9998C43.1 8.6998 43.2 8.3998 43.3 8.0998L46 7.2998L48.8 18.5998L45.3 19.4998L43.6 12.4998L41 13.0998Z" fill="white"/>
</svg>
