<svg width="110" height="110" viewBox="0 0 110 110" fill="none" xmlns="http://www.w3.org/2000/svg">
<circle cx="55" cy="55" r="55" fill="#DB007D"/>
<path d="M55.6 10.0004L55.9 7.80039C56.4 7.80039 56.9 7.80039 57.3 7.70039C57.7 7.60039 58.1 7.50039 58.4 7.30039C58.7 7.10039 59 6.90039 59.2 6.70039C59.4 6.50039 59.6 6.20039 59.8 5.90039L62.7 6.20039L61.4 18.1004L57.7 17.7004L58.5 10.3004L55.6 10.0004Z" fill="white"/>
<path d="M79.8 19.2004C79.7 19.5004 79.5 19.9004 79.2 20.2004C79 20.6004 78.6 20.9004 78.3 21.2004C77.9 21.5004 77.5 21.8004 77 22.0004C76.5 22.2004 75.9 22.4004 75.2 22.4004C74.5 22.4004 73.7 22.4004 72.9 22.2004C72 22.0004 71.1 21.7004 70 21.2004L69.3 21.0004C68.2 20.5004 67.3 20.0004 66.6 19.4004C65.9 18.9004 65.4 18.3004 64.9 17.8004C64.5 17.3004 64.2 16.7004 64 16.2004C63.8 15.7004 63.8 15.1004 63.8 14.7004C63.8 14.2004 63.9 13.8004 64 13.3004C64.1 12.9004 64.2 12.5004 64.4 12.2004L64.6 11.8004C64.7 11.5004 64.9 11.1004 65.2 10.8004C65.4 10.4004 65.7 10.1004 66.1 9.8004C66.5 9.5004 66.9 9.2004 67.4 9.0004C67.9 8.8004 68.5 8.7004 69.2 8.6004C69.9 8.6004 70.6 8.6004 71.5 8.8004C72.4 9.0004 73.3 9.3004 74.4 9.8004L75 10.1004C76.1 10.6004 77 11.1004 77.7 11.6004C78.4 12.1004 79 12.7004 79.4 13.2004C79.8 13.7004 80.1 14.3004 80.3 14.8004C80.5 15.3004 80.5 15.8004 80.5 16.3004C80.5 16.8004 80.4 17.2004 80.3 17.7004C80.2 18.1004 80.1 18.5004 79.9 18.8004L79.8 19.2004ZM76.4 17.3004C76.5 17.0004 76.6 16.6004 76.7 16.3004C76.7 15.9004 76.7 15.5004 76.5 15.1004C76.3 14.7004 76 14.3004 75.6 13.8004C75.2 13.4004 74.5 13.0004 73.7 12.6004C72.9 12.2004 72.1 12.0004 71.5 11.9004C70.9 11.8004 70.4 11.9004 69.9 12.0004C69.5 12.1004 69.1 12.3004 68.9 12.6004C68.6 12.9004 68.4 13.2004 68.3 13.5004L68.2 13.7004C68.1 14.0004 68 14.4004 67.9 14.8004C67.9 15.2004 67.9 15.6004 68.1 16.0004C68.3 16.4004 68.6 16.9004 69 17.3004C69.4 17.7004 70.1 18.1004 70.9 18.5004C71.7 18.9004 72.5 19.1004 73.1 19.2004C73.7 19.3004 74.2 19.2004 74.7 19.1004C75.1 19.0004 75.5 18.7004 75.8 18.4004C76.1 18.1004 76.3 17.8004 76.4 17.5004V17.3004Z" fill="white"/>
<path d="M92.6 33.6004C92.3 33.8004 92 34.0004 91.6 34.3004C91.2 34.5004 90.8 34.7004 90.3 34.8004C89.8 34.9004 89.3 35.0004 88.8 35.0004C88.2 35.0004 87.6 34.9004 87 34.6004C86.4 34.4004 85.7 34.0004 85 33.4004C84.3 32.9004 83.6 32.1004 82.8 31.2004L82.3 30.7004C81.5 29.8004 81 29.0004 80.6 28.2004C80.2 27.4004 79.9 26.7004 79.8 26.0004C79.7 25.3004 79.6 24.7004 79.7 24.2004C79.8 23.6004 79.9 23.1004 80.1 22.7004C80.3 22.3004 80.6 21.9004 80.8 21.5004C81.1 21.2004 81.4 20.9004 81.6 20.7004L82 20.4004C82.3 20.2004 82.6 19.9004 83 19.7004C83.4 19.5004 83.8 19.3004 84.3 19.2004C84.8 19.1004 85.3 19.0004 85.8 19.0004C86.4 19.0004 87 19.2004 87.6 19.4004C88.2 19.6004 88.9 20.0004 89.6 20.6004C90.3 21.1004 91 21.9004 91.8 22.8004L92.3 23.3004C93.1 24.2004 93.6 25.0004 94.1 25.8004C94.5 26.6004 94.8 27.3004 94.9 28.0004C95 28.7004 95.1 29.3004 95 29.8004C94.9 30.4004 94.8 30.8004 94.6 31.3004C94.4 31.7004 94.1 32.1004 93.9 32.5004C93.6 32.8004 93.3 33.1004 93.1 33.3004L92.6 33.6004ZM90.3 30.4004C90.6 30.2004 90.8 29.9004 91 29.6004C91.2 29.3004 91.3 28.9004 91.3 28.4004C91.3 27.9004 91.2 27.4004 91 26.9004C90.8 26.3004 90.4 25.7004 89.8 25.0004C89.2 24.3004 88.6 23.8004 88.1 23.4004C87.6 23.1004 87.1 22.9004 86.6 22.8004C86.2 22.7004 85.7 22.8004 85.4 22.9004C85 23.0004 84.7 23.2004 84.5 23.4004L84.4 23.5004C84.1 23.7004 83.9 24.0004 83.7 24.3004C83.5 24.6004 83.4 25.0004 83.3 25.5004C83.3 26.0004 83.4 26.5004 83.6 27.1004C83.8 27.7004 84.2 28.3004 84.8 29.0004C85.4 29.7004 85.9 30.2004 86.5 30.5004C87 30.8004 87.5 31.0004 88 31.1004C88.5 31.2004 88.9 31.1004 89.2 31.0004C89.6 30.9004 89.9 30.7004 90.2 30.5004L90.3 30.4004Z" fill="white"/>
<path d="M104.1 53.2004L89.8 42.9004L89.2 39.8004L103.5 50.1004L104.1 53.2004ZM91.8 53.6004C91.6 52.7004 91.6 51.9004 91.7 51.2004C91.8 50.6004 92 50.1004 92.3 49.7004C92.6 49.3004 92.9 49.0004 93.3 48.8004C93.7 48.6004 94 48.5004 94.3 48.4004L94.6 48.3004C94.9 48.2004 95.2 48.2004 95.6 48.3004C96 48.3004 96.4 48.5004 96.8 48.7004C97.2 49.0004 97.6 49.4004 97.9 49.9004C98.2 50.4004 98.5 51.2004 98.7 52.1004L98.8 52.5004C99 53.4004 99 54.2004 98.9 54.9004C98.8 55.5004 98.6 56.0004 98.3 56.4004C98 56.8004 97.7 57.1004 97.4 57.2004C97 57.4004 96.7 57.5004 96.4 57.6004L96.1 57.7004C95.8 57.8004 95.5 57.8004 95.1 57.7004C94.7 57.7004 94.3 57.5004 93.9 57.3004C93.5 57.1004 93.1 56.7004 92.8 56.1004C92.4 55.6004 92.2 54.8004 92 53.9004L91.8 53.6004ZM93.8 53.4004C93.9 53.8004 94 54.1004 94.1 54.4004C94.2 54.7004 94.4 54.8004 94.6 55.0004C94.8 55.1004 94.9 55.2004 95.1 55.3004C95.3 55.3004 95.5 55.3004 95.6 55.3004H95.7C95.9 55.3004 96 55.2004 96.2 55.1004C96.4 55.0004 96.5 54.9004 96.6 54.7004C96.7 54.5004 96.8 54.3004 96.8 54.0004C96.8 53.7004 96.8 53.4004 96.7 53.0004C96.6 52.6004 96.5 52.3004 96.4 52.0004C96.3 51.7004 96.1 51.6004 96 51.4004C95.8 51.3004 95.7 51.2004 95.5 51.1004C95.3 51.1004 95.1 51.1004 95 51.1004H94.9C94.7 51.1004 94.5 51.2004 94.4 51.3004C94.2 51.4004 94.1 51.6004 94 51.7004C93.9 51.9004 93.8 52.1004 93.8 52.4004C93.7 52.6004 93.7 53.0004 93.8 53.4004ZM94.6 40.4004C94.4 39.4004 94.4 38.6004 94.5 38.0004C94.6 37.4004 94.8 36.9004 95.1 36.5004C95.4 36.1004 95.7 35.8004 96.1 35.7004C96.5 35.5004 96.8 35.4004 97.1 35.3004L97.4 35.2004C97.7 35.1004 98 35.1004 98.4 35.2004C98.8 35.2004 99.2 35.4004 99.6 35.6004C100 35.9004 100.4 36.2004 100.7 36.8004C101 37.3004 101.3 38.1004 101.5 39.0004L101.6 39.4004C101.8 40.4004 101.8 41.2004 101.7 41.8004C101.6 42.4004 101.4 42.9004 101.1 43.3004C100.8 43.7004 100.5 44.0004 100.2 44.1004C99.8 44.3004 99.5 44.4004 99.2 44.5004L98.9 44.6004C98.7 44.6004 98.5 44.7004 98.2 44.7004C98 44.7004 97.7 44.7004 97.4 44.6004C97.1 44.5004 96.9 44.4004 96.6 44.3004C96.3 44.1004 96.1 43.9004 95.8 43.6004C95.6 43.3004 95.3 42.9004 95.1 42.5004C94.9 42.1004 94.7 41.5004 94.6 40.9004V40.4004ZM96.6 40.2004C96.7 40.6004 96.8 40.9004 96.9 41.2004C97 41.5004 97.2 41.6004 97.4 41.8004C97.6 41.9004 97.7 42.0004 97.9 42.1004C98.1 42.1004 98.3 42.1004 98.4 42.1004H98.5C98.7 42.1004 98.9 42.0004 99 41.9004C99.2 41.8004 99.3 41.7004 99.4 41.5004C99.5 41.3004 99.6 41.1004 99.6 40.8004C99.6 40.5004 99.6 40.2004 99.5 39.8004C99.4 39.4004 99.3 39.1004 99.2 38.8004C99.1 38.6004 98.9 38.4004 98.8 38.2004C98.6 38.1004 98.5 38.0004 98.3 37.9004C98.1 37.9004 97.9 37.9004 97.7 37.9004H97.6C97.4 37.9004 97.3 38.0004 97.1 38.1004C96.9 38.2004 96.8 38.3004 96.7 38.5004C96.6 38.7004 96.5 38.9004 96.5 39.2004C96.5 39.5004 96.5 39.8004 96.6 40.2004Z" fill="white"/>
<path d="M89.8 66.7004L91.3 63.3004L102.3 68.1004L98.5 77.0004C98.1 77.9004 97.7 78.6004 97.3 79.2004C96.9 79.7004 96.5 80.1004 96 80.4004C95.6 80.7004 95.2 80.8004 94.8 80.8004C94.4 80.8004 94 80.7004 93.6 80.5004L93.4 80.4004C93 80.2004 92.7 80.0004 92.5 79.7004C92.3 79.4004 92.1 79.2004 92 78.9004C91.9 78.6004 91.8 78.3004 91.8 78.0004C91.8 77.7004 91.8 77.5004 91.8 77.3004C91.6 77.5004 91.4 77.8004 91.1 78.0004C90.8 78.2004 90.6 78.3004 90.3 78.4004C90 78.5004 89.7 78.5004 89.4 78.5004C89.1 78.5004 88.7 78.4004 88.4 78.3004L86.8 77.6004C86.4 77.4004 86 77.3004 85.8 77.3004C85.6 77.3004 85.4 77.3004 85.3 77.3004H85.2L86.7 73.8004C86.8 73.8004 86.9 73.8004 87 73.8004C87.1 73.8004 87.3 73.9004 87.5 73.9004L88.8 74.5004C89.5 74.8004 90 74.8004 90.5 74.6004C91 74.4004 91.4 73.9004 91.7 73.0004L93.7 68.5004L89.8 66.7004ZM96.2 69.5004L93.9 74.7004C93.7 75.2004 93.6 75.6004 93.7 75.9004C93.8 76.2004 94 76.4004 94.3 76.6004C94.6 76.7004 94.9 76.7004 95.2 76.6004C95.5 76.5004 95.8 76.2004 96 75.7004L98.3 70.5004L96.2 69.5004Z" fill="white"/>
<path d="M84.2 94.7004L82.3 92.8004L88.7 86.5004L87.5 85.2004L81.3 91.3004L79.4 89.3004L85.6 83.2004L84.2 81.8004L77.7 88.2004L75.7 86.2004L84.8 77.2004L93.2 85.7004L84.2 94.7004Z" fill="white"/>
<path d="M68.3 89.5004C69.4 89.1004 70.3 88.8004 71.2 88.6004C72.1 88.5004 72.8 88.4004 73.5 88.5004C74.2 88.6004 74.8 88.7004 75.3 89.0004C75.8 89.2004 76.2 89.5004 76.6 89.9004C77 90.2004 77.3 90.6004 77.5 91.0004C77.7 91.4004 77.9 91.7004 78 92.1004L78.2 92.5004C78.3 92.8004 78.5 93.2004 78.6 93.7004C78.7 94.1004 78.7 94.6004 78.7 95.1004C78.7 95.6004 78.6 96.1004 78.4 96.6004C78.2 97.1004 77.9 97.6004 77.5 98.2004C77.1 98.7004 76.5 99.2004 75.8 99.7004C75.1 100.2 74.2 100.7 73.1 101.1L72.5 101.3C71.4 101.7 70.5 102 69.6 102.2C68.8 102.4 68 102.4 67.3 102.4C66.6 102.4 66.1 102.3 65.6 102.1C65.1 101.9 64.7 101.7 64.4 101.5C64.1 101.3 63.8 101 63.6 100.7C63.4 100.4 63.3 100.2 63.2 100L63 99.7004L66.7 98.2004C66.7 98.3004 66.9 98.4004 67 98.5004C67.2 98.7004 67.5 98.8004 67.8 98.9004C68.2 99.0004 68.7 99.0004 69.2 99.0004C69.8 99.0004 70.5 98.7004 71.4 98.4004C72.2 98.1004 72.9 97.7004 73.3 97.3004C73.8 96.9004 74.1 96.5004 74.3 96.1004C74.5 95.7004 74.6 95.3004 74.6 94.9004C74.6 94.5004 74.5 94.1004 74.4 93.8004L74.3 93.6004C74.2 93.3004 74 93.0004 73.7 92.6004C73.4 92.3004 73.1 92.1004 72.6 91.9004C72.1 91.7004 71.6 91.7004 71 91.7004C70.4 91.7004 69.7 91.9004 68.9 92.2004C68 92.6004 67.3 92.9004 66.9 93.3004C66.4 93.7004 66.1 94.1004 65.9 94.4004C65.7 94.7004 65.6 95.0004 65.6 95.3004C65.6 95.5004 65.6 95.7004 65.6 95.8004L61.9 97.3004L62 97.2004C61.9 97.0004 61.8 96.7004 61.8 96.3004C61.7 96.0004 61.8 95.6004 61.8 95.2004C61.9 94.8004 62 94.3004 62.2 93.9004C62.4 93.4004 62.8 93.0004 63.2 92.5004C63.7 92.0004 64.2 91.5004 65 91.1004C65.7 90.6004 66.6 90.2004 67.7 89.7004L68.3 89.5004Z" fill="white"/>
<path d="M55.7 97.2004L62 104.7L57.3 104.6L53.6 100.1L49.7 104.5L45.5 104.4L51.9 97.2004L52 92.6004L55.8 92.7004L55.7 97.2004Z" fill="white"/>
<path d="M40.4 89.7004C41.5 90.1004 42.4 90.6004 43.1 91.1004C43.8 91.6004 44.4 92.1004 44.8 92.6004C45.2 93.1004 45.5 93.7004 45.7 94.2004C45.9 94.7004 46 95.2004 46 95.7004C46 96.2004 46 96.7004 45.9 97.1004C45.8 97.5004 45.7 97.9004 45.6 98.2004L45.4 98.6004C45.3 98.9004 45.1 99.3004 44.9 99.7004C44.7 100.1 44.4 100.4 44 100.8C43.7 101.1 43.2 101.4 42.7 101.7C42.2 101.9 41.6 102.1 41 102.2C40.3 102.3 39.6 102.2 38.7 102.1C37.8 102 36.9 101.7 35.8 101.2L35.2 101C34.1 100.6 33.2 100.1 32.5 99.6004C31.8 99.1004 31.2 98.7004 30.7 98.2004C30.3 97.7004 29.9 97.3004 29.7 96.8004C29.5 96.3004 29.3 95.9004 29.3 95.5004C29.2 95.1004 29.2 94.7004 29.3 94.4004C29.4 94.1004 29.4 93.8004 29.5 93.6004L29.6 93.4004L33.3 94.9004C33.3 95.0004 33.3 95.1004 33.3 95.4004C33.3 95.6004 33.4 95.9004 33.6 96.3004C33.8 96.6004 34.1 97.0004 34.6 97.4004C35.1 97.8004 35.7 98.1004 36.6 98.5004C37.4 98.8004 38.2 99.0004 38.8 99.1004C39.4 99.1004 39.9 99.1004 40.3 98.9004C40.7 98.7004 41 98.5004 41.3 98.2004C41.6 97.9004 41.8 97.6004 41.9 97.2004L42 97.0004C42.1 96.7004 42.2 96.3004 42.2 95.9004C42.2 95.5004 42.1 95.1004 41.9 94.6004C41.7 94.2004 41.4 93.8004 40.9 93.3004C40.4 92.9004 39.8 92.5004 39 92.2004C38.1 91.8004 37.4 91.6004 36.8 91.6004C36.2 91.6004 35.7 91.6004 35.3 91.7004C34.9 91.8004 34.7 92.0004 34.5 92.2004C34.3 92.4004 34.2 92.5004 34.2 92.5004L30.5 91.0004L30.6 90.8004C30.7 90.6004 30.8 90.3004 31 90.0004C31.2 89.7004 31.5 89.4004 31.8 89.2004C32.1 88.9004 32.5 88.7004 33 88.5004C33.5 88.3004 34 88.2004 34.7 88.2004C35.4 88.2004 36.1 88.2004 37 88.4004C37.8 88.6004 38.8 88.8004 39.9 89.3004L40.4 89.7004Z" fill="white"/>
<path d="M21.1 92.0004L27.4 85.5004L21.4 79.7004L23.5 77.6004L32.2 86.0004L23.9 94.6004L21.1 92.0004Z" fill="white"/>
<path d="M6.79999 71.1004L9.19999 69.9004L13.1 77.9004L14.7 77.1004L10.9 69.3004L13.4 68.1004L17.2 75.9004L19 75.0004L15 66.8004L17.5 65.6004L23.1 77.1004L12.3 82.4004L6.79999 71.1004Z" fill="white"/>
<path d="M5.10002 65.8004L4.60002 57.9004C4.50002 56.7004 4.60002 55.7004 4.70002 54.9004C4.80002 54.0004 5.00002 53.2004 5.20002 52.6004C5.40002 52.0004 5.70002 51.4004 6.10002 51.0004C6.40002 50.6004 6.80002 50.2004 7.20002 50.0004C7.60002 49.7004 8.00002 49.5004 8.50002 49.4004C8.90002 49.3004 9.40002 49.2004 9.80002 49.2004H10.3C10.7 49.2004 11.2 49.2004 11.6 49.3004C12 49.4004 12.5 49.5004 13 49.7004C13.4 49.9004 13.9 50.2004 14.3 50.6004C14.7 51.0004 15.1 51.5004 15.4 52.1004C15.7 52.7004 16 53.4004 16.2 54.3004C16.4 55.2004 16.6 56.2004 16.6 57.3004L17.1 65.3004L5.10002 65.8004ZM14 61.6004L13.8 57.7004C13.7 56.6004 13.6 55.8004 13.3 55.2004C13.1 54.6004 12.8 54.1004 12.4 53.8004C12.1 53.5004 11.7 53.3004 11.4 53.2004C11 53.0004 10.7 53.0004 10.4 53.0004H10.3C10 53.0004 9.70002 53.1004 9.30002 53.2004C8.90002 53.3004 8.60002 53.6004 8.30002 53.9004C8.00002 54.3004 7.80002 54.8004 7.60002 55.4004C7.50002 56.1004 7.40002 57.0004 7.50002 58.0004L7.70002 61.9004L14 61.6004Z" fill="white"/>
<path d="M15.8 38.7004L19.3 40.5004L17.6 43.8004L6.90002 38.4004L11.1 30.4004C11.6 29.4004 12.1 28.7004 12.6 28.2004C13.1 27.7004 13.6 27.3004 14.1 27.1004C14.6 26.9004 15.1 26.8004 15.6 26.9004C16.1 27.0004 16.6 27.1004 17.1 27.4004L17.2 27.5004C17.7 27.7004 18.1 28.1004 18.4 28.4004C18.7 28.8004 19 29.2004 19.1 29.8004C19.2 30.3004 19.2 31.0004 19.1 31.7004C19 32.4004 18.6 33.3004 18.1 34.2004L15.8 38.7004ZM13.4 37.5004L15.8 32.9004C16.1 32.4004 16.2 31.9004 16.1 31.6004C16 31.2004 15.8 31.0004 15.5 30.8004C15.1 30.6004 14.8 30.6004 14.5 30.7004C14.2 30.8004 13.9 31.2004 13.6 31.7004L11.2 36.3004L13.4 37.5004Z" fill="white"/>
<path d="M28.3 27.7004L15.8 22.6004L19.1 19.9004L28.2 23.8004L25.7 14.4004L28.7 11.9004L32 24.8004L28.3 27.7004Z" fill="white"/>
<path d="M42.8 19.5004C41.7 19.8004 40.7 20.0004 39.8 20.1004C38.9 20.2004 38.2 20.1004 37.5 20.0004C36.8 19.9004 36.3 19.6004 35.8 19.4004C35.3 19.1004 34.9 18.8004 34.6 18.4004C34.3 18.0004 34 17.7004 33.8 17.3004C33.6 16.9004 33.4 16.5004 33.3 16.2004L33.2 15.8004C33.1 15.5004 33 15.1004 32.9 14.6004C32.8 14.2004 32.8 13.7004 32.9 13.2004C33 12.7004 33.1 12.2004 33.3 11.7004C33.5 11.2004 33.9 10.7004 34.4 10.2004C34.9 9.7004 35.5 9.3004 36.3 8.8004C37.1 8.4004 38 8.0004 39.2 7.6004L39.8 7.4004C40.9 7.1004 41.9 6.8004 42.8 6.8004C43.7 6.7004 44.4 6.7004 45.1 6.8004C45.7 6.9004 46.3 7.0004 46.8 7.3004C47.3 7.5004 47.6 7.8004 47.9 8.0004C48.2 8.3004 48.4 8.6004 48.6 8.8004C48.8 9.1004 48.9 9.3004 49 9.6004L49.1 9.8004L45.3 11.0004C45.3 10.9004 45.2 10.8004 45 10.6004C44.8 10.4004 44.6 10.3004 44.2 10.1004C43.8 10.0004 43.4 9.9004 42.8 9.9004C42.2 9.9004 41.5 10.0004 40.5 10.3004C39.6 10.6004 39 10.9004 38.5 11.2004C38 11.5004 37.6 11.9004 37.4 12.3004C37.2 12.7004 37.1 13.1004 37 13.5004C37 13.9004 37 14.3004 37.2 14.6004L37.3 14.8004C37.4 15.1004 37.6 15.5004 37.8 15.8004C38 16.1004 38.4 16.4004 38.8 16.6004C39.2 16.8004 39.7 16.9004 40.3 17.0004C40.9 17.0004 41.6 16.9004 42.5 16.7004C43.4 16.4004 44.1 16.1004 44.6 15.7004C45.1 15.3004 45.4 15.0004 45.7 14.7004C45.9 14.4004 46 14.1004 46 13.8004C46 13.6004 46 13.4004 46 13.3004L49.8 12.1004L49.9 12.3004C50 12.5004 50 12.8004 50 13.2004C50 13.6004 50 13.9004 49.9 14.3004C49.8 14.7004 49.6 15.1004 49.4 15.6004C49.1 16.0004 48.8 16.5004 48.3 16.9004C47.8 17.3004 47.2 17.8004 46.4 18.2004C45.6 18.6004 44.7 19.0004 43.6 19.3004L42.8 19.5004Z" fill="white"/>
<g clip-path="url(#clip0_1_235)">
<path d="M44.4333 61.2971H54.4866V69.2942H45.7141C44.2403 69.2646 43.2474 68.1047 42.6844 67.2522" stroke="white" stroke-width="2" stroke-miterlimit="10" stroke-linecap="round"/>
<path d="M42.6844 67.253C42.1214 66.3998 38.836 60.3885 38.1614 59.3639C37.486 58.3408 37.6963 56.8799 38.0628 56.2463L40.6159 51.9163L39.3494 51.1847L46.134 50.3531L48.808 56.6452L47.5416 55.9137L42.9256 63.9093C42.3777 64.859 42.0422 66.3544 42.6844 67.253Z" stroke="white" stroke-width="2" stroke-miterlimit="10" stroke-linecap="round"/>
<path d="M65.6402 61.3007L60.6132 52.5931L67.5388 48.5942L71.9265 56.1938C72.6372 57.4847 72.1303 58.9247 71.6724 59.8384" stroke="white" stroke-width="2" stroke-miterlimit="10" stroke-linecap="round"/>
<path d="M71.6724 59.8384C71.2145 60.7528 67.6512 66.6021 67.1018 67.6986C66.5539 68.7952 65.183 69.3438 64.4515 69.3438L59.4252 69.2985L59.4245 70.7608L55.3111 65.2996L59.4252 59.8384V61.3007H68.6556C69.7529 61.3007 71.2152 60.8435 71.6724 59.8384Z" stroke="white" stroke-width="2" stroke-miterlimit="10" stroke-linecap="round"/>
<path d="M59.8499 38.4681C61.0732 38.3947 62.2339 39.3083 62.5996 39.9412L65.0735 44.3174L66.3393 43.5866L63.6674 49.8787L56.8814 49.0478L58.1479 48.3163L55.0468 42.9443" stroke="white" stroke-width="2" stroke-miterlimit="10" stroke-linecap="round"/>
<path d="M50.7578 38.44C49.7368 38.5005 48.2364 38.7813 47.4732 40.042L43.0869 47.6409L50.0126 51.6405L56.453 40.4805C57.0463 39.4509 58.3754 38.4616 59.85 38.4681C58.3322 38.5041 54.7732 38.4537 50.7578 38.44Z" stroke="white" stroke-width="2" stroke-miterlimit="10" stroke-linecap="round"/>
</g>
<defs>
<clipPath id="clip0_1_235">
<rect width="36" height="36" fill="white" transform="translate(37 37)"/>
</clipPath>
</defs>
</svg>
