<svg width="110" height="110" viewBox="0 0 110 110" fill="none" xmlns="http://www.w3.org/2000/svg">
<circle cx="55" cy="55" r="55" fill="#F2F2F2"/>
<g clip-path="url(#clip0_1_238)">
<path d="M55.5337 32.9751C52.8436 33.0327 50.2638 30.7864 50.2454 27.5098C50.2331 24.3037 52.721 22.0062 55.4908 21.9998C58.3709 21.9934 60.773 24.4509 60.7668 27.4523C60.7607 30.7416 58.1993 33.0007 55.5337 32.9751Z" fill="black"/>
<path d="M45.0183 43.6433C44.9999 42.7409 44.9632 41.8322 45.0612 40.9299C45.4473 37.5765 48.0945 35.1191 51.33 35.1191C54.0997 35.1191 56.8634 35.1191 59.6331 35.1191C59.9579 35.1191 60.2827 35.1383 60.6075 35.1831C63.1934 35.5542 65.3872 37.7429 65.8651 40.4243C66.0551 41.493 65.9632 42.5746 65.9816 43.6497V45.0064H44.9877V43.6497H45.0183V43.6433Z" fill="black"/>
</g>
<path d="M39.3101 53.816H46.3171C46.9038 53.816 47.3878 53.8673 47.7691 53.97C48.1578 54.0727 48.4658 54.212 48.6931 54.388C48.9205 54.564 49.0781 54.7657 49.1661 54.993C49.2615 55.213 49.3091 55.444 49.3091 55.686V55.84C49.3091 56.104 49.2578 56.3313 49.1551 56.522C49.0598 56.7127 48.9425 56.8703 48.8031 56.995C48.6711 57.1197 48.5281 57.2187 48.3741 57.292C48.2275 57.358 48.1065 57.4057 48.0111 57.435C48.1505 57.4717 48.3191 57.534 48.5171 57.622C48.7225 57.7027 48.9168 57.8237 49.1001 57.985C49.2835 58.139 49.4411 58.3407 49.5731 58.59C49.7051 58.832 49.7711 59.1327 49.7711 59.492V59.646C49.7711 59.9687 49.7198 60.273 49.6171 60.559C49.5145 60.845 49.3311 61.0943 49.0671 61.307C48.8105 61.5197 48.4621 61.6883 48.0221 61.813C47.5895 61.9377 47.0431 62 46.3831 62H39.3101V53.816ZM41.8731 55.543V56.874H45.8771C46.0531 56.874 46.1998 56.8557 46.3171 56.819C46.4345 56.7823 46.5261 56.7347 46.5921 56.676C46.6581 56.61 46.7021 56.5367 46.7241 56.456C46.7535 56.3753 46.7681 56.2947 46.7681 56.214V56.192C46.7681 56.104 46.7535 56.0233 46.7241 55.95C46.7021 55.8693 46.6581 55.7997 46.5921 55.741C46.5261 55.6823 46.4345 55.6347 46.3171 55.598C46.1998 55.5613 46.0531 55.543 45.8771 55.543H41.8731ZM41.8731 58.612V60.218H46.0971C46.3098 60.218 46.4821 60.1923 46.6141 60.141C46.7461 60.0897 46.8488 60.0237 46.9221 59.943C46.9955 59.8623 47.0431 59.7743 47.0651 59.679C47.0945 59.5837 47.1091 59.4957 47.1091 59.415V59.371C47.1091 59.283 47.0945 59.195 47.0651 59.107C47.0431 59.0117 46.9955 58.931 46.9221 58.865C46.8488 58.7917 46.7461 58.733 46.6141 58.689C46.4821 58.6377 46.3098 58.612 46.0971 58.612H41.8731Z" fill="black"/>
<path d="M56.4964 53.673C57.3544 53.673 58.0914 53.739 58.7074 53.871C59.3234 54.003 59.8441 54.179 60.2694 54.399C60.7021 54.619 61.0468 54.872 61.3034 55.158C61.5601 55.4367 61.7581 55.7263 61.8974 56.027C62.0441 56.3203 62.1394 56.6173 62.1834 56.918C62.2274 57.2113 62.2494 57.479 62.2494 57.721V58.051C62.2494 58.293 62.2274 58.5607 62.1834 58.854C62.1394 59.1473 62.0477 59.448 61.9084 59.756C61.7691 60.0567 61.5674 60.35 61.3034 60.636C61.0468 60.922 60.7058 61.1787 60.2804 61.406C59.8551 61.626 59.3308 61.8057 58.7074 61.945C58.0914 62.077 57.3544 62.143 56.4964 62.143H56.0234C55.1581 62.143 54.4138 62.077 53.7904 61.945C53.1744 61.8057 52.6537 61.626 52.2284 61.406C51.8031 61.1787 51.4584 60.922 51.1944 60.636C50.9377 60.35 50.7398 60.0567 50.6004 59.756C50.4611 59.448 50.3694 59.1473 50.3254 58.854C50.2814 58.5607 50.2594 58.293 50.2594 58.051V57.721C50.2594 57.479 50.2814 57.2113 50.3254 56.918C50.3694 56.6173 50.4611 56.3203 50.6004 56.027C50.7398 55.7263 50.9377 55.4367 51.1944 55.158C51.4584 54.872 51.8031 54.619 52.2284 54.399C52.6537 54.179 53.1744 54.003 53.7904 53.871C54.4138 53.739 55.1581 53.673 56.0234 53.673H56.4964ZM59.5654 57.798C59.5654 57.5633 59.5214 57.3213 59.4334 57.072C59.3528 56.8153 59.1914 56.5843 58.9494 56.379C58.7074 56.1663 58.3701 55.994 57.9374 55.862C57.5047 55.7227 56.9438 55.653 56.2544 55.653C55.5504 55.653 54.9821 55.7227 54.5494 55.862C54.1168 55.994 53.7794 56.1663 53.5374 56.379C53.3028 56.5843 53.1451 56.8153 53.0644 57.072C52.9838 57.3213 52.9434 57.5633 52.9434 57.798V57.93C52.9434 58.1647 52.9838 58.414 53.0644 58.678C53.1524 58.9347 53.3174 59.173 53.5594 59.393C53.8014 59.613 54.1388 59.7963 54.5714 59.943C55.0041 60.0823 55.5651 60.152 56.2544 60.152C56.9438 60.152 57.5011 60.0823 57.9264 59.943C58.3591 59.8037 58.6964 59.6277 58.9384 59.415C59.1804 59.195 59.3454 58.9567 59.4334 58.7C59.5214 58.436 59.5654 58.1867 59.5654 57.952V57.798Z" fill="black"/>
<path d="M65.743 58.832L61.3649 53.816H64.5439L67.0849 56.83L69.6699 53.816H72.563L68.306 58.832V62H65.743V58.832Z" fill="black"/>
<path d="M35.4425 66.816V68.675H29.5355V69.885H35.2995V71.755H29.5355V75H26.9835V66.816H35.4425Z" fill="black"/>
<path d="M39.0855 70.281H42.9685C43.3352 70.281 43.5992 70.204 43.7605 70.05C43.9219 69.896 44.0025 69.7053 44.0025 69.478V69.467C44.0025 69.2543 43.9219 69.071 43.7605 68.917C43.6065 68.7557 43.3425 68.675 42.9685 68.675H39.0855V70.281ZM39.0855 75H36.5225V66.816H43.1225C43.8045 66.816 44.3729 66.871 44.8275 66.981C45.2822 67.091 45.6452 67.245 45.9165 67.443C46.1952 67.6337 46.3895 67.8573 46.4995 68.114C46.6169 68.3707 46.6755 68.6457 46.6755 68.939V69.071C46.6755 69.3643 46.6205 69.6137 46.5105 69.819C46.4079 70.0243 46.2759 70.2003 46.1145 70.347C45.9605 70.4863 45.7955 70.5963 45.6195 70.677C45.4435 70.7577 45.2895 70.82 45.1575 70.864C45.3629 70.9227 45.5609 71.0033 45.7515 71.106C45.9422 71.2087 46.1072 71.3407 46.2465 71.502C46.3859 71.656 46.4959 71.8357 46.5765 72.041C46.6645 72.2463 46.7085 72.481 46.7085 72.745V73.944C46.7085 74.274 46.7232 74.5087 46.7525 74.648C46.7892 74.78 46.8259 74.879 46.8625 74.945V75H44.2555C44.2189 74.9487 44.1895 74.8863 44.1675 74.813C44.1455 74.7397 44.1345 74.6297 44.1345 74.483V73.537C44.1345 73.0383 44.0062 72.6753 43.7495 72.448C43.5002 72.2133 43.0602 72.096 42.4295 72.096H39.0855V75Z" fill="black"/>
<path d="M50.2789 75H47.7159V66.816H50.2789V75Z" fill="black"/>
<path d="M60.1534 66.816V68.675H54.0594V69.885H60.0104V71.755H54.0594V73.097H60.2634V75H51.5294V66.816H60.1534Z" fill="black"/>
<path d="M64.1862 66.816L69.4112 71.964V66.816H71.9412V75H69.4112L63.8562 69.577V75H61.3262V66.816H64.1862Z" fill="black"/>
<path d="M73.1964 66.816H78.6194C79.4114 66.816 80.1007 66.871 80.6874 66.981C81.2814 67.0837 81.791 67.2267 82.2164 67.41C82.649 67.5933 83.0047 67.8097 83.2833 68.059C83.562 68.3083 83.782 68.5797 83.9434 68.873C84.112 69.159 84.2293 69.456 84.2953 69.764C84.3613 70.072 84.3943 70.38 84.3943 70.688V71.018C84.3943 71.3113 84.3613 71.6157 84.2953 71.931C84.2367 72.239 84.1267 72.5397 83.9654 72.833C83.804 73.1263 83.584 73.405 83.3054 73.669C83.0267 73.933 82.6747 74.164 82.2494 74.362C81.824 74.56 81.3144 74.7177 80.7204 74.835C80.1264 74.945 79.4297 75 78.6304 75H73.1964V66.816ZM75.7593 73.031H78.4214C79.1474 73.031 79.7267 72.9613 80.1594 72.822C80.592 72.6753 80.922 72.4993 81.1494 72.294C81.384 72.0813 81.5344 71.854 81.6004 71.612C81.6737 71.3627 81.7104 71.1317 81.7104 70.919V70.853C81.7104 70.6477 81.6774 70.424 81.6114 70.182C81.5454 69.9327 81.3987 69.7017 81.1714 69.489C80.944 69.2763 80.6104 69.1003 80.1704 68.961C79.7377 68.8217 79.1547 68.752 78.4214 68.752H75.7593V73.031Z" fill="black"/>
<path d="M52.7857 79.816V81.675H46.8787V82.885H52.6427V84.755H46.8787V88H44.3267V79.816H52.7857Z" fill="black"/>
<path d="M56.4288 88H53.8658V79.816H56.4288V88Z" fill="black"/>
<path d="M60.8803 81.752H57.3603V79.816H66.9963V81.752H63.4653V88H60.8803V81.752Z" fill="black"/>
<defs>
<clipPath id="clip0_1_238">
<rect width="21" height="23" fill="white" transform="matrix(-1 0 0 1 66 22)"/>
</clipPath>
</defs>
</svg>
